PathFileType	4	(X/Y/Z)	Kaydara	
DataRate	CameraRate	NumFrames	NumMarkers	Units	OrigDataRate	OrigDataStartFrame	OrigNumFrames	
120.00	120.00	4	72	mm	120.00	34	268	
Frame#	Time	Hips			RightUpLeg			RightLeg			RightFoot			RightFoot_End			LeftUpLeg			LeftLeg			LeftFoot			LeftFoot_End			Spine			Spine1			Spine2			Spine3			Neck			Head			Head_End			RightShoulder			RightArm			RightForeArm			RightHand			RightHandThumb1			RightHandThumb2			RightHandThumb3			RightHandThumb3_End			RightInHandIndex			RightHandIndex1			RightHandIndex2			RightHandIndex3			RightHandIndex3_End			RightInHandMiddle			RightHandMiddle1			RightHandMiddle2			RightHandMiddle3			RightHandMiddle3_End			RightInHandRing			RightHandRing1			RightHandRing2			RightHandRing3			RightHandRing3_End			RightInHandPinky			RightHandPinky1			RightHandPinky2			RightHandPinky3			RightHandPinky3_End			LeftShoulder			LeftArm			LeftForeArm			LeftHand			LeftHandThumb1			LeftHandThumb2			LeftHandThumb3			LeftHandThumb3_End			LeftInHandIndex			LeftHandIndex1			LeftHandIndex2			LeftHandIndex3			LeftHandIndex3_End			LeftInHandMiddle			LeftHandMiddle1			LeftHandMiddle2			LeftHandMiddle3			LeftHandMiddle3_End			LeftInHandRing			LeftHandRing1			LeftHandRing2			LeftHandRing3			LeftHandRing3_End			LeftInHandPinky			LeftHandPinky1			LeftHandPinky2			LeftHandPinky3			LeftHandPinky3_End			
		X1	Y1	Z1	X2	Y2	Z2	X3	Y3	Z3	X4	Y4	Z4	X5	Y5	Z5	X6	Y6	Z6	X7	Y7	Z7	X8	Y8	Z8	X9	Y9	Z9	X10	Y10	Z10	X11	Y11	Z11	X12	Y12	Z12	X13	Y13	Z13	X14	Y14	Z14	X15	Y15	Z15	X16	Y16	Z16	X17	Y17	Z17	X18	Y18	Z18	X19	Y19	Z19	X20	Y20	Z20	X21	Y21	Z21	X22	Y22	Z22	X23	Y23	Z23	X24	Y24	Z24	X25	Y25	Z25	X26	Y26	Z26	X27	Y27	Z27	X28	Y28	Z28	X29	Y29	Z29	X30	Y30	Z30	X31	Y31	Z31	X32	Y32	Z32	X33	Y33	Z33	X34	Y34	Z34	X35	Y35	Z35	X36	Y36	Z36	X37	Y37	Z37	X38	Y38	Z38	X39	Y39	Z39	X40	Y40	Z40	X41	Y41	Z41	X42	Y42	Z42	X43	Y43	Z43	X44	Y44	Z44	X45	Y45	Z45	X46	Y46	Z46	X47	Y47	Z47	X48	Y48	Z48	X49	Y49	Z49	X50	Y50	Z50	X51	Y51	Z51	X52	Y52	Z52	X53	Y53	Z53	X54	Y54	Z54	X55	Y55	Z55	X56	Y56	Z56	X57	Y57	Z57	X58	Y58	Z58	X59	Y59	Z59	X60	Y60	Z60	X61	Y61	Z61	X62	Y62	Z62	X63	Y63	Z63	X64	Y64	Z64	X65	Y65	Z65	X66	Y66	Z66	X67	Y67	Z67	X68	Y68	Z68	X69	Y69	Z69	X70	Y70	Z70	X71	Y71	Z71	X72	Y72	Z72	

34	0.275	5446.805	859.65103	-201.189	5540.913872120087	857.1679808732401	-232.30650431702617	5391.941869992951	468.2355442373429	-291.3247830357946	5417.8750052213945	39.60523808428895	-339.0580483500143	5327.422510460215	-34.9573178910499	-176.64032909680986	5362.678352434594	834.729102675466	-155.772511902714	5242.079073517863	436.6870461900214	-104.23791406968637	5189.392911496711	59.164973786381765	63.98459210562271	5216.313254066517	14.329408435205156	247.27316015403835	5397.414588494715	979.4802366956417	-261.8710351962939	5342.032624463711	1042.0287760446495	-311.38531959723196	5277.661638500693	1100.2536748631173	-363.297243222047	5207.387933993127	1145.2209008737937	-413.27854270078785	5131.4972737170665	1193.6804258737682	-463.26152015623506	5089.605403892203	1265.7283581737731	-418.23216954845884	5065.889178215334	1350.5584787647456	-284.6598400598472	5177.294893585759	1184.6200926120682	-467.23395836345145	5259.205765307815	1185.0122536043764	-549.5707578610911	5319.65792251381	959.008330518897	-573.312168191593	5408.28236177467	846.047997590999	-653.1406164085702	5408.492127210086	847.2678588435614	-668.9998606895949	5396.300301198947	845.2950554151549	-684.6811498783901	5389.420769798742	842.0274929861922	-694.2858219440251	5385.06365110203	837.6834510682961	-701.1672022462632	5416.139640832696	840.2607445586968	-665.5735928056735	5426.093466357285	825.8241741029243	-680.407537790532	5423.1183527086705	817.5437826752968	-691.6097563722464	5413.7489216249	816.0280620431728	-698.9775573877425	5400.9215143646925	817.2235339657616	-705.3479782767354	5419.703812782147	835.6965992768146	-661.5203627481114	5431.34316239321	819.146350299353	-673.796301321917	5428.522347307908	809.557598306442	-685.4383180906069	5417.422706764304	807.4634889197682	-694.0480959402256	5403.4864737378675	808.6425057454079	-700.8827598490476	5422.0809513400745	832.8072464179985	-658.2636401443233	5434.906431679147	815.3696605222675	-666.3956092282286	5432.8632427757475	806.4730960958983	-675.9289586081529	5422.377363287494	804.1669424419182	-683.9077676308086	5409.378326254373	805.1398903831789	-690.1795886244635	5423.641748860627	830.1567642083654	-654.1951707687613	5436.749998451302	812.4130898406428	-659.1014441391077	5435.705260442362	804.5244793694849	-665.7423236737118	5428.342882114836	802.4725169829799	-671.0817166301591	5416.992481057005	803.1215396381533	-676.3610654885863	5135.459445878898	1173.7602492557498	-424.02979904561624	5077.442669589343	1107.8123144135404	-344.140089885147	5183.49533197164	969.3463379921376	-517.7516646266693	5375.058885238653	888.743275275973	-506.3281875411889	5364.233517723981	893.8924048615937	-512.1777620889318	5366.347463714218	891.2231557951318	-540.6923863524548	5368.7723813218945	887.5311366990359	-562.6818741690346	5371.60899020972	882.8850415697364	-582.837341764544	5365.473680379049	888.0305732661959	-518.9059099163571	5359.478241726444	879.1149538837516	-552.3199745568085	5361.619823135859	871.6440003783865	-583.3225465673357	5366.106030955916	868.489185935683	-602.5212116846583	5371.947264319889	866.882913078949	-618.3609307341101	5368.573821796428	883.2948001476134	-523.90968461833	5364.4011137711	872.0375497728694	-559.2050906206562	5367.174397933482	863.2877190306518	-593.5965977463509	5372.796263906425	859.1948143525707	-617.0285400706465	5379.289438575702	857.2978704083832	-634.4910523740496	5370.857989355139	880.175590663987	-526.5340719815288	5368.9283935777385	867.3765261153715	-560.2739592230778	5371.7988645810465	859.1571453475264	-590.7686862321301	5377.462318026106	854.8943073225742	-613.6462537784048	5383.6816125220685	852.961472323066	-630.1960159923786	5374.129686114392	876.8458932463002	-529.0485055462722	5374.176698259662	863.0480330298586	-561.3604918778808	5377.191259665638	855.5969429205076	-586.4424703110571	5381.668556672754	852.0670939591947	-603.4501436463445	5387.377167362547	850.1129072252005	-618.295099735967
35	0.283	5446.805	859.65103	-201.189	5540.717458965804	857.1286513737124	-232.31582569884083	5392.099956941439	468.116242350236	-291.22170187766585	5418.143874943449	39.725712867031824	-339.2209606310147	5328.0057134419385	-34.92081358715296	-176.876925093747	5362.85707169009	834.757083605074	-155.77170093780404	5242.095321825442	436.8171779329775	-103.88813526664765	5189.3589427627385	59.29973257791307	64.28180866773343	5216.496897225305	14.369478398969303	247.50572081982887	5397.5038406001695	979.5323747223061	-261.8330898120764	5342.1769659484935	1042.159749360108	-311.2961916890981	5277.866063186739	1100.4774609509188	-363.15455338713855	5207.664396640395	1145.5694479749461	-413.0969132210843	5131.8568855733	1194.1714053564647	-463.04033904291197	5090.004982523658	1266.2340184471825	-418.0111168139592	5066.300116321344	1351.0613962372834	-284.44598124380366	5177.590992555885	1185.078885585732	-466.9937557828237	5259.442645933849	1185.6019499492074	-549.1313513188791	5320.21732039052	959.8348982757651	-572.8239440586336	5409.265120502461	847.9230523572973	-652.7339444692672	5409.506902865977	849.3527450432463	-668.5477462810876	5397.368868804764	847.4813201620451	-684.2296083610685	5390.539896267536	844.2809297457247	-693.8440292702545	5386.236131042648	839.9899534185967	-700.7415357950597	5417.20736391936	842.3663135558561	-665.1486376223974	5427.326378992768	828.2098954896294	-679.9988019106277	5424.4498895769775	820.0511745633495	-691.2240001303194	5415.109321704004	818.5519221204186	-698.6036309635226	5402.283914692033	819.7211098903317	-704.982186090324	5420.800634026458	837.7796097309734	-661.1208293013244	5432.6168485590115	821.4904318754433	-673.4263354302415	5429.906935690319	812.0304698589424	-685.0967439897643	5418.8436926397235	809.9543201142773	-693.722385415471	5404.910414106369	811.1036497660275	-700.5667231407257	5423.194399381481	834.8679476829756	-657.8815989647479	5436.193651084862	817.6472424370861	-666.055091897394	5434.250198855397	808.8584470142457	-675.6165315602656	5423.801060070297	806.5672352469728	-683.612417951304	5410.805574572624	807.5111406740314	-689.8941762593294	5424.767334631821	832.1775116969171	-653.833249329551	5438.043456855405	814.6108271344795	-658.789834204407	5437.08262018232	806.8005655526517	-665.4582430763435	5429.74899274742	804.755657138416	-670.812528279651	5418.402861340228	805.3767400764416	-676.1020819741095	5135.829123336877	1174.183873226678	-423.8542807951988	5077.816591518875	1108.1821210977491	-344.1859345338923	5183.979140252917	970.1829337865798	-517.7586907377218	5375.42086824952	890.4135516808034	-506.09218468579456	5364.6639268388935	895.6459788760095	-511.91312928106726	5366.835388888215	893.068289909168	-540.4047774566627	5369.296539179411	889.44605531173	-562.3798710118389	5372.160084396189	884.8632879330618	-582.5247127309742	5365.897664965729	889.8162147146488	-518.6438825803247	5359.9784950836665	881.0869520050214	-552.0264083332878	5362.167831498179	873.730524994212	-583.0098409023152	5366.678002965605	870.619224965428	-602.1992878360943	5372.535208761319	869.0302933134228	-618.0331845997414	5368.984505129132	885.0896135735492	-523.6532568584701	5364.8789945371045	874.0190952289881	-558.9209293518215	5367.702379992579	865.3948225461643	-593.2923961220145	5373.352192595847	861.3546979837968	-616.7136218819037	5379.862375565289	859.4768650088505	-634.1699610875207	5371.257373625636	881.972358961278	-526.2823811657602	5369.378320685721	869.3430143790657	-560.0014543692006	5372.290300163294	861.2333736482708	-590.4796216886959	5377.979563638009	857.0216067732191	-613.3473339614842	5384.2143064472175	855.1068173463591	-629.8915199518852	5374.51348916611	878.6377009905109	-528.8033792199333	5374.597426533344	864.9932817759536	-561.1002303030872	5377.641635911686	857.6297982377903	-586.1704547288247	5382.136022232104	854.1370704373907	-603.1716687829904	5387.8573180047015	852.198794145671	-618.0121042910802
36	0.292	5446.805	859.65103	-201.189	5540.50940685	857.0931387663904	-232.33520070856414	5392.258443377238	468.0067856053274	-291.16449214209274	5418.406665012881	39.86279952937447	-339.4370565227431	5328.599256460205	-34.87451585838694	-177.17237084358038	5363.048640165137	834.7802805436042	-155.7630681651141	5242.114863984707	436.9410473688332	-103.56070759724115	5189.338287388378	59.424327182134206	64.56203674739186	5216.7082800764165	14.402681929278359	247.72325119267393	5397.588505908537	979.5885120120995	-261.7847700438387	5342.3128197473225	1042.2959226399075	-311.19120543748886	5278.048200757533	1100.6925132717856	-362.99185084651816	5207.915850275242	1145.9089492249034	-412.8924118226071	5132.190051314014	1194.6552647008448	-462.79307503903414	5090.376185491841	1266.7315618711573	-417.76417194444116	5066.6893306854945	1351.5548117420412	-284.20545937186245	5177.859371630876	1185.5321629908156	-466.73151910020624	5259.654870164451	1186.186498328846	-548.6732466907582	5320.7551897033845	960.6155310553535	-572.3217072611799	5410.196521170722	849.6682574288709	-652.2796862308777	5410.475146400889	851.2979655248382	-668.0540326876654	5398.390873752658	849.5042832430039	-683.7415798927169	5391.610699619378	846.3548578892265	-693.3670224401617	5387.3573323441005	842.1036526919314	-700.2797595224299	5418.222724322335	844.3335518183138	-664.673810569687	5428.499110207544	830.4395100910459	-679.5309134773248	5425.716010519725	822.3829942042526	-690.7759580768603	5416.403188553362	820.8853869702932	-698.1698793169664	5403.58029834174	822.0141859324609	-704.5615790629439	5421.840644152768	839.7252593663014	-660.6656839056025	5433.823691192665	823.6803410399992	-672.9885997001228	5431.218407392963	814.3281050622571	-684.6832578681338	5420.189944395693	812.2521163866254	-693.3273845166979	5406.260054609504	813.3563670920497	-700.1867096151896	5424.248077946459	836.792497073115	-657.4400767056364	5437.4094979941365	819.7748607386525	-665.6406909919509	5435.559756964076	811.075681323142	-675.2258911774621	5425.145502552421	808.7823529290589	-683.2410017081928	5412.153836518037	809.6827956137284	-689.5375123773946	5425.830086170143	834.0634630560749	-653.4080546395024	5439.261496465661	816.6621657366516	-658.3992305971176	5438.378916655544	808.9160985592757	-665.0906425381871	5431.072289709005	806.8659861581497	-670.4608735020828	5419.730437178911	807.4464616690162	-675.7646025222061	5136.174768390715	1174.5976234690463	-423.65055384800274	5078.168297641613	1108.5164818026733	-344.2035169084193	5184.460721720225	970.9825569761692	-517.7581692582919	5375.756093307362	891.9915940605482	-505.8513530294231	5365.049424698678	897.3088422778251	-511.6497352490365	5367.279613674802	894.8363503408439	-540.1161597559549	5369.780656106016	891.2923879114676	-562.0739395486174	5372.676597668094	886.7791608326979	-582.204563034897	5366.2838631468885	891.5060915555041	-518.3792729560546	5360.440206121753	882.9608749063614	-551.7266046647715	5362.6837433613555	875.7257870358831	-582.6858071291767	5367.223477124583	872.6678601504018	-601.8628596718439	5373.102362774464	871.1082228675284	-617.6882975234532	5369.365419495058	886.7863984791893	-523.390569590878	5365.330703772655	875.8991315657302	-558.6249551891333	5368.212293157814	867.4075701091149	-592.9703500836777	5373.897319973566	863.4319851821232	-616.3767986392661	5380.431005618682	861.5862766237803	-633.8239687153856	5371.632620031405	883.6694656906958	-526.0219424333086	5369.812068445769	871.2050333171051	-559.713112224489	5372.773706263941	863.211087020708	-590.168984283342	5378.496367496048	859.0615853067843	-613.0226703625278	5384.752938677087	857.1770068554017	-629.55834268529	5374.880080206386	880.328761079385	-528.546614620063	5375.012335562851	866.8323923175409	-560.8200996278738	5378.0943814677585	859.5608675808506	-585.8732615471412	5382.612195786414	856.1132248123012	-602.8646278331945	5388.352291163617	854.2015197322501	-617.6977413959316
37	0.3	5446.805	859.65103	-201.189	5540.289422200634	857.0611419782109	-232.36461503560585	5392.4152893773935	467.90681582796236	-291.1494313165583	5418.665333772628	40.01692647102566	-339.7048134494684	5329.205505658174	-34.81886729638228	-177.52593104060222	5363.253380443315	834.7991027637021	-155.74650006214782	5242.14084254277	437.0574762921782	-103.26145985847945	5189.334310256231	59.53745309090892	64.81996165684795	5216.950210115622	14.429141018444149	247.92045580541443	5397.668475198918	979.6481943287864	-261.72663472839884	5342.439907028259	1042.4363329946307	-311.07137462482825	5278.208397182457	1100.8985215006123	-362.8105148014732	5208.142230764268	1146.2383287046237	-412.66650780767407	5132.496014496247	1195.1297094457707	-462.5212053077718	5090.717238670504	1267.2184409174642	-417.4934168630052	5067.054734992701	1352.036810860597	-283.94091924200217	5178.099032696712	1185.977338787896	-466.44864266672556	5259.838269805977	1186.7610597205728	-548.1989717226298	5321.261273748542	961.3473070395671	-571.8015158909326	5411.0487761935365	851.2696215999738	-651.7703953071	5411.3688995524	853.0866451508564	-667.5113753323088	5399.337839972291	851.3461775387066	-683.2101361598925	5392.603854113954	848.2309412836696	-692.8480154695642	5388.396802563628	844.005783019859	-699.7750798577133	5419.1558517753365	846.1452684641338	-664.141164070766	5429.577413054134	832.4921619744426	-678.9949727731511	5426.880187757142	824.5171072722834	-690.2565132653169	5417.59373424039	823.0064676671382	-697.6674889898412	5404.774443062094	824.0815276920794	-704.0778907465588	5422.792831431125	841.5166872138738	-660.146631959721	5434.927792040398	825.6958201338322	-672.4736829954877	5432.418239846446	816.4289082845793	-684.1881694034527	5421.422560607661	814.3354848873964	-692.8537488463611	5407.497081183515	815.3801037524668	-699.7339635783428	5425.210268712148	838.5643469282395	-656.9305522124511	5438.517226783762	821.7331566968094	-665.1426714463795	5436.752753493044	813.1043378820023	-674.7470177948009	5426.3710923192875	810.7920638078909	-682.7838110010017	5413.384033071722	811.6354283372558	-689.100432224532	5426.797690793142	835.798642723732	-652.9108767142905	5440.366786036536	818.548858652295	-657.919674187659	5439.554700600837	810.8520604772086	-664.6292760102145	5432.272918661054	808.7847075979181	-670.0167050993036	5420.935763728738	809.3126520458794	-675.3390446413564	5136.496331493931	1175.0003074697738	-423.42029051559626	5078.501289135302	1108.8189173104893	-344.19313348963215	5184.935375992817	971.7416074762381	-517.741613182539	5376.049877452706	893.4601018994424	-505.5988745469248	5365.375142482681	898.8635923046909	-511.38118012625216	5367.665859101332	896.5089421381075	-539.8191191588239	5370.210934513669	893.0508703276631	-561.7558233599715	5373.145194155532	888.6125189767763	-581.8678176828105	5366.617584611605	893.0821779737308	-518.1053375542882	5360.849184491304	884.7168173858257	-551.4129719910823	5363.1540237268055	877.6084381139782	-582.3416993318506	5367.729398298315	874.6130626279322	-601.502330537668	5373.636117267416	873.0942558618297	-617.315878948704	5369.702063850209	888.3667031982914	-523.1145120778835	5365.742330356824	877.6571437143502	-558.3090317114028	5368.690965157113	869.3038215823368	-592.6210171724426	5374.419064109301	865.4036907221013	-616.0075792395493	5380.983240387429	863.602652020005	-633.4417046411197	5371.969345917147	885.2482061136044	-525.7454118890338	5370.215878181829	872.9418088086293	-559.4004809505108	5373.235991553919	865.0680468012458	-589.8271379499591	5379.0002200959725	860.9911635602796	-612.6615910568997	5385.2854696841605	859.1485093234255	-629.1849737667989	5375.215218728407	881.9001328405523	-528.2705869051209	5375.407836345347	868.5443793505725	-560.5113010095413	5378.536475459054	861.3679268453616	-585.5410768688763	5383.084497164178	857.9726878230413	-602.5184190293323	5388.849932384072	856.097795797304	-617.3406479285784
